<svg xmlns="http://www.w3.org/2000/svg" xmlns:xlink="http://www.w3.org/1999/xlink" width="154" height="90" viewBox="0 0 154.054 90"><svg xmlns="http://www.w3.org/2000/svg" viewBox="0 0 770.805 100" height="20" width="154.05377197265625" x="0" y="55">
  <path d="M81.276 57.42c-.693-13.038-1.526-28.7-1.387-40.36h-.416c-3.2 10.955-7.074 22.746-11.8 35.506L51.178 97.92h-9.153L26.907 53.4C22.47 40.224 18.724 28.16 16.1 17.063h-.277c-.278 11.65-.97 27.322-1.8 41.33l-2.5 40.084H0L6.518 4.993h15.4L37.864 50.2c3.884 11.5 7.074 21.775 9.436 31.484h.417C50.07 72.26 53.4 62 57.558 50.2L74.2 4.993h15.4l5.824 93.482h-11.8zm79.75 24.965a94.448 94.448 0 0 0 1.11 16.09h-11.1l-.972-8.46h-.415A25.006 25.006 0 0 1 129.126 100c-13.592 0-20.526-9.57-20.526-19.278 0-16.228 14.423-25.1 40.36-24.966V54.37c0-5.547-1.526-15.534-15.257-15.534a33.422 33.422 0 0 0-17.474 4.994l-2.776-8.044c5.55-3.607 13.593-5.965 22.054-5.965 20.527 0 25.52 14 25.52 27.463zm-11.8-18.168C135.922 63.94 120.8 66.3 120.8 79.335c0 7.905 5.27 11.65 11.5 11.65a16.7 16.7 0 0 0 16.232-11.235 12.739 12.739 0 0 0 .694-3.883zm46.474-48.96v16.1h17.476v9.292H195.7v36.2c0 8.323 2.358 13.037 9.156 13.037a22.812 22.812 0 0 0 7.072-.831l.556 9.154a29.418 29.418 0 0 1-10.819 1.8c-5.686 0-10.264-1.94-13.176-5.27-3.467-3.607-4.716-9.57-4.716-17.476V40.638h-10.4v-9.292h10.4V19zM227.184 0H239.4v41.886h.277a22.653 22.653 0 0 1 8.738-8.6 25.112 25.112 0 0 1 12.482-3.468c9.016 0 23.44 5.548 23.44 28.7v39.948h-12.2V59.918c0-10.82-4.022-19.973-15.535-19.973-7.905 0-14.147 5.547-16.365 12.2a14.776 14.776 0 0 0-.832 5.826v40.5h-12.2zm75.6 85.992a31.985 31.985 0 0 0 16.089 4.854c8.876 0 13.037-4.44 13.037-9.986 0-5.824-3.468-9.015-12.483-12.344-12.066-4.3-17.753-10.956-17.753-19 0-10.817 8.738-19.694 23.163-19.694a33.5 33.5 0 0 1 16.5 4.161l-3.052 8.876a26.139 26.139 0 0 0-13.731-3.883c-7.2 0-11.235 4.16-11.235 9.154 0 5.548 4.024 8.045 12.762 11.373 11.65 4.44 17.612 10.263 17.612 20.25 0 11.8-9.153 20.25-25.1 20.25a38.255 38.255 0 0 1-18.863-4.716zm85.16-29.542v9.015h-34.258V56.45zm13.872 42.025L398.2 4.993h20.1l.14 41.47-.554 30.374h.277l10.956-29.96L445.9 4.993h21.914l-.277 41.748c-.14 11.234-.417 20.526-.833 29.682h.277l10.263-29.82 16.228-41.6h20.944l-41.193 93.482H451.46l-.693-38.28c0-11.1.277-20.527.83-31.07h-.277c-3.468 9.987-6.657 20.1-11.373 31.484L424 98.475zm105.272 0L525.663 0h19.973l-7.5 39.25.277.14c5.55-6.242 12.622-10.264 21.637-10.264 10.542 0 17.06 6.66 17.06 18.3a81.009 81.009 0 0 1-1.248 12.2l-7.35 38.836H548.54l6.936-37.17a41.64 41.64 0 0 0 .969-8.461c0-4.438-1.94-7.63-6.934-7.63-6.935 0-14.008 8.46-16.643 22.193l-5.826 31.07zm78.074 0l12.9-67.822h19.97l-12.9 67.822zm25.243-76.283c-5.4 0-9.57-3.745-9.57-9.7A11.359 11.359 0 0 1 612.348 1.11c5.824 0 9.986 3.883 9.986 9.848 0 7.074-5.4 11.234-11.8 11.234zm8.323 64.215L640.78 62.83a178.936 178.936 0 0 1 16.643-15.672l.14-.28h-28.988l3.05-16.226h52.982l-2.22 12.62L660.752 66.3a156.935 156.935 0 0 1-16.5 15.672v.277h31.76l-3.193 16.226h-56.312zm62.414 0l22.052-23.577a179.062 179.062 0 0 1 16.643-15.672l.14-.28H691l3.05-16.226h52.982l-2.22 12.62L723.167 66.3a156.941 156.941 0 0 1-16.5 15.672v.277h31.76l-3.2 16.228H678.92zm78.242-80.75a11.257 11.257 0 1 1-11.629 11.217 11.346 11.346 0 0 1 11.56-11.217zm-.137 2.257a8.7 8.7 0 0 0-8.618 8.96 8.69 8.69 0 0 0 8.755 8.96c4.925.068 8.55-3.967 8.55-8.96a8.66 8.66 0 0 0-8.618-8.96zm-1.7 14.774h-2.6v-11.15a21.781 21.781 0 0 1 4.309-.41 6.353 6.353 0 0 1 3.9.889 3.07 3.07 0 0 1 1.1 2.4 2.884 2.884 0 0 1-2.326 2.667v.137c1.1.342 1.7 1.23 2.052 2.735a7.438 7.438 0 0 0 .82 2.737h-2.8a8.973 8.973 0 0 1-.889-2.669c-.206-1.23-.888-1.777-2.325-1.777h-1.232zm.07-6.293h1.23c1.437 0 2.6-.48 2.6-1.64 0-1.026-.753-1.7-2.393-1.7a6.269 6.269 0 0 0-1.437.136z" fill="#002f64"></path>
</svg><svg xmlns="http://www.w3.org/2000/svg" viewBox="0 0 1487.771 997.865" width="75" height="50" x="39.5" y="0">
  <defs>
    <clipPath id="blue-clip-path">
      <path d="M787.9,309.732c-122.9-1.235-245.377-8.721-368.279-9.944-2.131,0-9.492-.088-11.075-.086-126.845,1.3-253.521,9.591-380.367,10.889A28.777,28.777,0,0,0,0,339.1C.348,513.63,4.344,685.653,4.7,860.184c.3,15.863,10.747,30.2,26.316,33.232C152.478,917.1,271.091,943.554,392,966.805c8.673,1.668,19.855-1.3,20.015-1.334,123.287-27.094,240.4-58.833,362.236-91.8,14.648-4.469,23.644-19.966,23.972-34.712,1.822-167.109,15.811-333.789,17.61-500.9A28.494,28.494,0,0,0,787.9,309.732Z"></path>
    </clipPath>
    <linearGradient id="blue-gradient" x1="403.413" y1="982.348" x2="403.413" y2="328.602" gradientUnits="userSpaceOnUse">
      <stop offset="0" stop-color="#309cd4"></stop>
      <stop offset="1" stop-color="#fff"></stop>
    </linearGradient>
    <linearGradient id="blue-gradient-right" x1="806.838" y1="672.789" x2="543.838" y2="637.789" href="#blue-gradient"></linearGradient>
    <linearGradient id="blue-shine" x1="748.144" y1="736.423" x2="701.061" y2="654.873" gradientUnits="userSpaceOnUse">
      <stop offset="0" stop-color="#fff" stop-opacity="0"></stop>
      <stop offset="1" stop-color="#fff" stop-opacity="0.2"></stop>
    </linearGradient>
    <g id="blue-shadow-bottom">
      <path fill="#466dab" d="M793.349,301.189c-124.66-1.676-248.889-9.48-373.558-10.086-2.162-.011-9.628-.1-11.233-.087-128.669.76-257.16,9.367-385.82,11.045A29.121,29.121,0,0,0-5.847,330.977C-6.117,508.01-2.93,682.509-1.082,859.532c.168,16.091,10.9,30.628,26.693,33.708,123.205,24.024,243.518,50.857,366.156,74.442,8.8,1.691,20.14-1.318,20.3-1.354C536.993,938.261,656.46,908.614,779.5,873.214c14.928-4.3,24.068-20.25,24.316-35.209,2.811-169.49,16.738-338.566,17.862-508.077A28.824,28.824,0,0,0,793.349,301.189Z"></path>
      <path fill="#6681b9" d="M793.349,299.005c-124.66-1.676-248.889-9.481-373.558-10.087-2.162-.011-9.628-.1-11.233-.087-128.669.76-257.16,9.367-385.82,11.045A29.121,29.121,0,0,0-5.847,328.792c-.27,177.033,2.917,351.532,4.765,528.555.168,16.092,10.9,30.628,26.693,33.708,123.205,24.024,243.518,50.857,366.156,74.442,8.8,1.692,20.14-1.318,20.3-1.354C536.993,936.076,656.461,906.43,779.5,871.029c14.928-4.295,24.068-20.25,24.316-35.209,2.811-169.49,16.738-338.566,17.862-508.077A28.823,28.823,0,0,0,793.349,299.005Z"></path>
      <path fill="#8698c7" d="M793.349,296.82c-124.66-1.676-248.889-9.481-373.558-10.087-2.162-.011-9.628-.1-11.233-.087-128.669.76-257.16,9.367-385.82,11.045A29.121,29.121,0,0,0-5.847,326.607C-6.117,503.64-2.93,678.139-1.082,855.162c.168,16.092,10.9,30.628,26.693,33.708,123.205,24.024,243.518,50.857,366.156,74.442,8.8,1.692,20.14-1.318,20.3-1.354,124.925-28.067,244.393-57.712,367.429-93.113,14.928-4.3,24.068-20.251,24.316-35.209,2.811-169.491,16.738-338.567,17.862-508.078A28.823,28.823,0,0,0,793.349,296.82Z"></path>
      <path fill="#a3afd5" d="M793.349,294.635c-124.66-1.675-248.889-9.481-373.558-10.087-2.162-.01-9.628-.1-11.233-.087-128.669.759-257.16,9.367-385.82,11.045A29.121,29.121,0,0,0-5.847,324.423c-.27,177.032,2.917,351.531,4.765,528.554.168,16.092,10.9,30.628,26.693,33.708,123.205,24.025,243.518,50.857,366.156,74.442,8.8,1.692,20.14-1.318,20.3-1.354C536.993,931.707,656.461,902.061,779.5,866.66c14.928-4.3,24.068-20.251,24.316-35.209,2.811-169.491,16.738-338.567,17.862-508.078A28.823,28.823,0,0,0,793.349,294.635Z"></path>
      <path fill="#c2c8e4" d="M793.349,292.45c-124.66-1.675-248.889-9.481-373.558-10.087-2.162-.01-9.628-.1-11.233-.086-128.669.758-257.16,9.366-385.82,11.044A29.121,29.121,0,0,0-5.847,322.238c-.27,177.033,2.917,351.531,4.765,528.554.168,16.092,10.9,30.628,26.693,33.708,123.205,24.025,243.518,50.858,366.156,74.442,8.8,1.692,20.14-1.318,20.3-1.354,124.925-28.066,244.393-57.711,367.429-93.113,14.928-4.3,24.068-20.25,24.316-35.209,2.811-169.491,16.738-338.567,17.862-508.078A28.823,28.823,0,0,0,793.349,292.45Z"></path>
      <path fill="#dfe2f1" d="M793.349,290.265c-124.66-1.675-248.889-9.481-373.558-10.086-2.162-.011-9.628-.1-11.233-.087-128.669.758-257.16,9.366-385.82,11.045A29.121,29.121,0,0,0-5.847,320.053c-.27,177.033,2.917,351.531,4.765,528.554.168,16.092,10.9,30.628,26.693,33.708,123.205,24.025,243.518,50.858,366.156,74.442,8.8,1.692,20.14-1.317,20.3-1.354,124.925-28.066,244.393-57.71,367.429-93.113,14.928-4.3,24.068-20.25,24.316-35.209C806.624,657.59,820.551,488.514,821.675,319A28.823,28.823,0,0,0,793.349,290.265Z"></path>
      <path fill="#fcfdfe" d="M793.349,288.081c-124.66-1.675-248.889-9.482-373.558-10.087-2.162-.011-9.628-.1-11.233-.087-128.669.757-257.16,9.366-385.82,11.045A29.121,29.121,0,0,0-5.847,317.868C-6.117,494.9-2.93,669.4-1.082,846.422c.168,16.092,10.9,30.628,26.693,33.708,123.205,24.025,243.518,50.858,366.156,74.442,8.8,1.692,20.14-1.317,20.3-1.354,124.925-28.066,244.393-57.71,367.429-93.113,14.928-4.3,24.068-20.25,24.316-35.209,2.811-169.491,16.738-338.567,17.862-508.078A28.822,28.822,0,0,0,793.349,288.081Z"></path>
      <path fill="#ffffff" d="M793.349,287.876c-124.665-1.253-248.894-8.847-373.558-10.087-2.162,0-9.628-.089-11.233-.087-128.665,1.321-257.156,9.728-385.82,11.045A29.188,29.188,0,0,0-5.847,317.663C-5.495,494.7-1.441,669.184-1.082,846.218c.3,16.089,10.9,30.628,26.693,33.708,123.205,24.024,243.518,50.857,366.156,74.441,8.8,1.692,20.14-1.316,20.3-1.354C537.123,925.531,655.913,893.338,779.5,859.9c14.858-4.533,23.983-20.252,24.316-35.209,1.849-169.5,16.037-338.573,17.862-508.077A28.9,28.9,0,0,0,793.349,287.876Z"></path>
    </g>
    <g fill-opacity="0.8">
      <path id="blue-shadow-left" fill="url(#blue-gradient)" d="M-10.245,328.602l827.316,0,0,653.746,-827.316,0,0,-653.746Z"></path>
      <path id="blue-shadow-right" fill="url(#blue-gradient-right)" d="M352.32,318.511l573,0,0,663.838,-573,0,0,-663.838Z"></path>
    </g>
    <filter id="filter-blue-shadow" filterUnits="userSpaceOnUse">
      <feImage href="#blue-shadow-left" x="0" y="0" result="left"></feImage>
      <feImage href="#blue-shadow-right" x="0" y="0" result="right"></feImage>
      <feImage href="#blue-shadow-bottom" x="0" y="0" result="bottom"></feImage>
      <feBlend mode="multiply" in="left" in2="right" result="sides"></feBlend>
      <feBlend mode="multiply" in="sides" in2="bottom" result="shadows"></feBlend>
      <feBlend mode="multiply" in="shadows" in2="SourceGraphic"></feBlend>
    </filter>
    <clipPath id="green-clip-path">
      <path d="M1472.223,217.974c-.28-.174-.557-.344-.83-.507-145.546-61.9-281.507-142.829-423.381-212.2-10.712-5.087-23.879-7.229-35.253-3.075C869.2,63.307,731.536,136.224,585.35,191.51c-1.8.444-11.28,5-14.78,11a26.994,26.994,0,0,0-4.629,17c12.471,144.836,27.075,287.446,39.493,432.288,1.522,15.187,8.456,31.587,20.054,41.811q178.1,149.382,356.665,298.211a38.762,38.762,0,0,0,7.453,4.819,19.575,19.575,0,0,0,19.582-3.575c126.182-92.19,255.781-179.635,381.663-272.226,12.4-9.566,20.44-25.743,23-40.976,22.648-145.94,52.589-290.624,73.669-436.82C1489.2,231.366,1482.169,221.881,1472.223,217.974Z"></path>
    </clipPath>
    <linearGradient id="green-gradient" x1="993.671" y1="985.919" x2="1014.033" y2="520.732" gradientUnits="userSpaceOnUse">
      <stop offset="0" stop-color="#00993e"></stop>
      <stop offset="1" stop-color="#52b046"></stop>
    </linearGradient>
    <radialGradient id="green-shine" cx="1019.146" cy="497.352" r="36.749" gradientUnits="userSpaceOnUse">
      <stop offset="0" stop-color="#fff" stop-opacity="0.7"></stop>
      <stop offset="0.108" stop-color="#fff" stop-opacity="0.554"></stop>
      <stop offset="0.253" stop-color="#fff" stop-opacity="0.386"></stop>
      <stop offset="0.4" stop-color="#fff" stop-opacity="0.247"></stop>
      <stop offset="0.548" stop-color="#fff" stop-opacity="0.138"></stop>
      <stop offset="0.697" stop-color="#fff" stop-opacity="0.061"></stop>
      <stop offset="0.847" stop-color="#fff" stop-opacity="0.015"></stop>
      <stop offset="1" stop-color="#fff" stop-opacity="0"></stop>
    </radialGradient>
  </defs>
  <g clip-path="url(#blue-clip-path)">
    <g filter="url(#filter-blue-shadow)">
      <rect fill="#dff2fd" x="-10.245" y="292.32" width="827.316" height="681.028"></rect>
      <g>
        <path fill="#d9effc" d="M11.374,312.468c61.986-.641,124.071-2.811,185.873-5,61.487-2.175,123.252-4.385,184.9-5.137,2.838-.028,5.525.176,8.075.345a22.863,22.863,0,0,1,9.025,2.749c9.252,5.1,15.667,15.884,15.591,27.921-.824,95.736-3.622,191.567-6.51,287.032-3.245,107.247-6.632,214.948-7.5,322.513a21.755,21.755,0,0,1-1.076,6.826,17.179,17.179,0,0,1-2.526,5q-.4.576-.838,1.112a25.884,25.884,0,0,1-24.619,8.971C307.2,954.125,243,941.063,179.05,927.922,124.417,916.7,69.572,905.33,14.575,895.286A31.119,31.119,0,0,1-5.368,881.255a38.7,38.7,0,0,1-5.883-19.707c-.185-87.112-.889-174.347-1.587-261.248-.691-85.975-1.381-172.277-1.562-258.458a31.987,31.987,0,0,1,8.779-21.928A24.034,24.034,0,0,1,11.374,312.468Z"></path>
        <path fill="#d2ecfb" d="M12.416,316.782c61.862-.639,123.983-2.816,185.5-4.992,61.208-2.166,123.013-4.535,184.532-5.1a43.718,43.718,0,0,1,7.925.847,18.666,18.666,0,0,1,8,3.777c7.537,6.116,12.782,16.857,12.7,28.64-.878,94.476-3.662,189.206-6.5,283.156-3.194,105.52-6.523,212.017-7.375,318.16a17.592,17.592,0,0,1-1.28,6.632,12.073,12.073,0,0,1-2.933,4.454c-.3.314-.61.608-.932.889a30.045,30.045,0,0,1-24.736,6.562c-63.513-10.6-126.772-23.49-189.511-36.384-53.591-11.013-107.656-22.2-161.751-32.082A27.566,27.566,0,0,1-2.731,876.894a45.129,45.129,0,0,1-4.822-19.568c-.193-85.591-.885-171.451-1.569-256.594-.677-84.238-1.357-169.174-1.547-253.85A37.525,37.525,0,0,1-3.5,324.92,20.264,20.264,0,0,1,12.416,316.782Z"></path>
        <path fill="#cbe9f9" d="M13.457,321.1c61.739-.638,123.9-2.821,185.127-4.987,60.93-2.155,122.775-4.6,184.162-5.069a26.067,26.067,0,0,1,7.774,1.348,15.424,15.424,0,0,1,6.971,4.805c5.825,7.12,9.9,17.829,9.8,29.358-.932,93.218-3.7,186.847-6.5,279.28-3.142,103.794-6.412,209.086-7.253,313.807a14.462,14.462,0,0,1-1.485,6.439,9.237,9.237,0,0,1-3.338,3.9,10.584,10.584,0,0,1-1.026.667,37.713,37.713,0,0,1-24.854,4.154c-62.451-10.514-124.766-23.238-186.3-35.885-52.548-10.8-105.833-21.813-159.026-31.528A24.6,24.6,0,0,1-.095,872.533,55.761,55.761,0,0,1-3.855,853.1c-.2-84.07-.881-168.554-1.551-251.94-.663-82.5-1.332-166.071-1.532-249.241a46.877,46.877,0,0,1,5.567-22A17.271,17.271,0,0,1,13.457,321.1Z"></path>
        <path fill="#c4e6f8" d="M14.5,325.41c61.615-.637,123.808-2.825,184.753-4.981,60.652-2.146,122.538-4.654,183.791-5.035a18.021,18.021,0,0,1,7.625,1.85,13.282,13.282,0,0,1,5.944,5.832,66.468,66.468,0,0,1,6.907,30.077c-.985,91.959-3.742,184.487-6.5,275.4-3.091,102.066-6.3,206.154-7.132,309.454a12.05,12.05,0,0,1-1.69,6.245,7.661,7.661,0,0,1-3.744,3.353,8.577,8.577,0,0,1-1.12.443,53.145,53.145,0,0,1-24.972,1.746c-61.389-10.43-122.759-22.985-183.081-35.385-51.5-10.588-104.011-21.423-156.3-30.975a22.089,22.089,0,0,1-16.44-15.266,75.212,75.212,0,0,1-2.7-19.29C-.365,766.333-1.034,683.224-1.69,601.6-2.339,520.834-3,438.628-3.207,356.964A64.733,64.733,0,0,1,.754,334.931,14.956,14.956,0,0,1,14.5,325.41Z"></path>
        <path fill="#bce2f6" d="M15.541,329.725c61.491-.636,123.72-2.831,184.38-4.977,60.374-2.136,122.3-5.441,183.42-5a13.924,13.924,0,0,1,7.474,2.351,12.145,12.145,0,0,1,4.918,6.859,116.009,116.009,0,0,1,4.012,30.8c-1.039,90.7-3.782,182.128-6.491,271.529-3.041,100.339-6.193,203.223-7.011,305.1a10.165,10.165,0,0,1-1.895,6.052,6.838,6.838,0,0,1-4.15,2.8,7.9,7.9,0,0,1-1.214.22A91.629,91.629,0,0,1,353.9,944.8c-60.327-10.346-120.752-22.732-179.866-34.885C123.566,899.535,71.84,888.876,20.45,879.489A19.991,19.991,0,0,1,5.179,863.81a120.063,120.063,0,0,1-1.638-19.15C3.325,763.632,2.668,681.9,2.026,602.028,1.391,523,.743,442.162.524,362.005a107.525,107.525,0,0,1,2.354-22.068A13.183,13.183,0,0,1,15.541,329.725Z"></path>
        <path fill="#b4dff4" d="M16.582,334.039c61.369-.635,123.633-2.835,184.007-4.971,60.1-2.127,122.066-5.6,183.05-4.967a11.161,11.161,0,0,1,7.323,2.854,11.823,11.823,0,0,1,3.891,7.886c.765,10.1,1.246,20.747,1.117,31.515-1.092,89.441-3.821,179.767-6.486,267.652C386.5,732.621,383.4,834.3,382.6,934.756a8.68,8.68,0,0,1-2.1,5.857,6.544,6.544,0,0,1-4.556,2.254,8.064,8.064,0,0,1-1.309,0c-8.141-.644-16.63-1.585-25.206-3.071-59.265-10.262-118.746-22.479-176.651-34.385C123.353,895.245,72.407,884.763,21.919,875.54a18.248,18.248,0,0,1-14.1-16.091c-.408-6.254-.549-12.619-.577-19.011-.223-79.507-.869-159.865-1.5-237.977C5.121,525.173,4.483,445.7,4.255,367.045c-.017-7.488.253-14.9.748-22.1A11.851,11.851,0,0,1,16.582,334.039Z"></path>
        <path fill="#b0ddf3" d="M373.81,941.681a8.48,8.48,0,0,1-1.355-.115c-67.028-11.006-134.785-24.937-200.309-38.411-48.9-10.055-99.456-20.449-149.492-29.59a17.6,17.6,0,0,1-13.519-16.3C8.964,772.386,8.271,686.109,7.6,602.677,6.928,519.016,6.233,432.51,6.065,347.446A11.345,11.345,0,0,1,17.1,336.2c61.307-.634,123.589-2.838,183.82-4.969,59.957-2.121,121.948-4.315,182.865-4.949a10.086,10.086,0,0,1,7.248,3.1,11.945,11.945,0,0,1,3.378,8.4c-.8,99.135-3.855,200.022-6.814,297.588-2.964,97.749-6.028,198.826-6.828,298.378v.193a8.055,8.055,0,0,1-2.2,5.761A6.546,6.546,0,0,1,373.81,941.681Z"></path>
      </g>
      <g>
        <path fill="#d9effc" d="M419.257,328.261a25.768,25.768,0,0,1,6.6-17.172,29.412,29.412,0,0,1,21.729-9.6c55.106.609,110.25,2.471,165.19,4.407,63.368,2.233,127,4.584,190.554,5.243a23.248,23.248,0,0,1,16.362,7.245,31.763,31.763,0,0,1,8.624,21.968c-.919,82.048-4.65,164.122-8.4,245.888-3.843,83.793-7.736,167.906-8.675,252.016a47.022,47.022,0,0,1-4.258,18.517c-3.488,7.552-9.571,14.07-17.535,16.6-118.735,33.149-236.259,63.778-353.6,90.464-12.127,2.894-23.342-3.071-27.354-12.933-.015-.057-.055-.109-.069-.167a17.344,17.344,0,0,1-.6-1.676,14.684,14.684,0,0,1-.823-4.427c-.129-1.568-.189-3.2-.173-4.871l0-.271c.765-101.87,3.519-203.942,6.248-305.558C415.813,532.288,418.542,430.186,419.257,328.261Z"></path>
        <path fill="#d2ecfb" d="M422.97,330.108a21.324,21.324,0,0,1,7.3-16.176,34.257,34.257,0,0,1,21.9-7.8c54.241.649,108.6,2.5,162.526,4.4,62.187,2.192,124.941,4.493,187.482,5.143a19.591,19.591,0,0,1,15.3,7.911,37.033,37.033,0,0,1,7,21.979c-.976,80.551-4.651,161.276-8.323,241.343-3.762,82.036-7.585,164.76-8.567,247.351a54.817,54.817,0,0,1-3.525,18.29c-2.868,7.5-8.621,14.4-16.354,16.879-118.13,32.98-233.1,62.894-346.612,88.8-11.743,2.791-22.725-1.675-27.8-9.336-.012-.047-.078-.082-.09-.129a11.222,11.222,0,0,1-.805-1.333,8.88,8.88,0,0,1-1.373-3.906,23.537,23.537,0,0,1-.411-4.791c0-.064,0-.205,0-.269.751-101.384,3.5-203.242,6.207-304.124C419.533,533.442,422.259,431.563,422.97,330.108Z"></path>
        <path fill="#cbe9f9" d="M426.683,331.955c.048-6.58,3.372-12.4,8-15.181a42.753,42.753,0,0,1,22.077-6c53.374.689,106.948,2.528,159.861,4.395,61.006,2.152,122.884,4.4,184.411,5.043a16.731,16.731,0,0,1,14.236,8.577,46.054,46.054,0,0,1,5.379,21.992c-1.032,79.053-4.652,158.429-8.246,236.8-3.682,80.279-7.435,161.614-8.459,242.686a67.424,67.424,0,0,1-2.791,18.064c-2.251,7.44-7.672,14.738-15.174,17.161C668.447,898.3,556.034,927.5,446.344,952.629c-11.359,2.688-22.109-.278-28.249-5.74-.01-.037-.1-.054-.111-.091a7.617,7.617,0,0,1-1.015-.988,6.2,6.2,0,0,1-1.923-3.386,14.617,14.617,0,0,1-.649-4.711c0-.05,0-.218,0-.268.737-100.9,3.475-202.541,6.165-302.689S425.976,432.939,426.683,331.955Z"></path>
        <path fill="#c4e6f8" d="M430.4,333.8c.047-6.535,3.752-12.207,8.694-14.185a58.783,58.783,0,0,1,22.25-4.195c52.509.729,105.3,2.556,157.2,4.388,59.825,2.112,120.827,4.315,181.34,4.943A14.513,14.513,0,0,1,813.051,334a63.338,63.338,0,0,1,3.756,22c-1.089,77.556-4.652,155.583-8.169,232.252-3.6,78.522-7.284,158.468-8.35,238.021a90.522,90.522,0,0,1-2.059,17.837c-1.638,7.38-6.721,15.072-13.993,17.444-116.92,32.642-226.777,61.125-332.644,85.471-10.974,2.586-21.492,1.119-28.7-2.143-.007-.026-.125-.027-.132-.053a6.017,6.017,0,0,1-1.224-.644,4.989,4.989,0,0,1-2.473-2.865,10.464,10.464,0,0,1-.888-4.631c0-.035,0-.231,0-.267.724-100.409,3.453-201.841,6.123-301.254S429.692,434.316,430.4,333.8Z"></path>
        <path fill="#bce2f6" d="M434.11,335.648c.047-6.491,4.139-12.007,9.394-13.19a97.251,97.251,0,0,1,22.423-2.4c51.643.77,103.647,2.585,154.533,4.382,58.645,2.072,118.769,4.225,178.268,4.843a12.8,12.8,0,0,1,12.11,9.91,103.679,103.679,0,0,1,2.134,22.016c-1.146,76.057-4.653,152.736-8.092,227.705-3.521,76.767-7.133,155.323-8.242,233.357a144.765,144.765,0,0,1-1.325,17.611c-1.031,7.316-5.772,15.405-12.814,17.727-116.314,32.472-223.615,60.24-325.658,83.806a83.19,83.19,0,0,1-29.146,1.454c0-.016-.148,0-.152-.015a5.918,5.918,0,0,1-1.434-.3,4.619,4.619,0,0,1-3.023-2.345,8.1,8.1,0,0,1-1.126-4.55c0-.021,0-.244,0-.265.71-99.922,3.432-201.141,6.081-299.819S433.409,435.693,434.11,335.648Z"></path>
        <path fill="#b4dff4" d="M437.823,337.5c.047-6.447,4.53-11.808,10.094-12.195,7.342-.51,14.92-.709,22.6-.594,50.777.81,102,2.613,151.868,4.376,57.464,2.031,116.712,4.135,175.2,4.742A11.509,11.509,0,0,1,808.625,344.4c.448,7.169.626,14.561.511,22.027-1.2,74.56-4.653,149.89-8.013,223.16-3.441,75.01-6.984,152.177-8.134,228.692-.093,5.813-.253,11.635-.593,17.385-.429,7.252-4.821,15.738-11.633,18.009-115.709,32.3-220.455,59.355-318.674,82.141a278.642,278.642,0,0,1-29.594,5.051s-.172.028-.173.023a6.8,6.8,0,0,1-1.643.044,4.825,4.825,0,0,1-3.572-1.825,6.615,6.615,0,0,1-1.365-4.47l0-.264c.7-99.435,3.41-200.44,6.04-298.384S437.126,437.07,437.823,337.5Z"></path>
        <path fill="#b0ddf3" d="M432.964,940.12a5.119,5.119,0,0,1-3.847-1.564,6.077,6.077,0,0,1-1.484-4.43l0-.264c.689-99.191,3.4-200.09,6.019-297.667,2.62-97.557,5.329-198.436,6.025-297.777.046-6.425,4.726-11.66,10.443-11.7,57.7.594,116.427,2.67,173.22,4.679,56.873,2.011,115.683,4.09,173.661,4.693A11.024,11.024,0,0,1,807.519,347c-.847,80.946-4.623,163.284-8.275,242.921-3.66,79.769-7.443,162.25-8.306,243.631-.184,7.218-4.347,15.9-11.043,18.15-127.408,35.568-240.265,64.405-345,88.158l-.183.042A7.514,7.514,0,0,1,432.964,940.12Z"></path>
      </g>
    </g>
    <g fill="#3e4697">
      <path d="M548.912,837.924c-.705-86.261-.611-172.522-.575-258.785,0-8.276-3.923-14.987-9.337-16.843q-39.955,3.153-79.912,6.3c-7.866.617-14.375,9.894-14.375,20.674q0,135.88,0,271.76c0,7.731,3.45,13.738,8.362,15.947q41.554-8.235,83.021-16.894C543.314,858.57,549,848.59,548.912,837.924Z"></path>
      <path d="M774.753,790.8c.777-105.975,7.085-211.722,10.155-317.629.233-8.541-4.541-15.674-10.854-16.714q-36.079.616-72.156,1.384c-6.988.153-12.726,8.338-12.825,18.091-1.236,111.754-4.61,223.466-4.353,335.238.027,7.457,2.751,13.44,6.669,15.826q35.476-7.442,71.023-14.531C769.159,811.132,774.7,801.261,774.753,790.8Z"></path>
      <path d="M663.083,813.634c-.474-141.258,4.373-282.46,3.9-423.718-.045-9.966-5.215-18.3-11.715-19.153q-35.973.312-71.944.735c-7.171.087-12.943,8.927-12.849,19.579,1.183,148.073-.316,296.15.9,444.223.066,7.509,2.982,13.459,7.127,15.808q36.364-7.77,72.718-15.586C657.838,834.106,663.131,824.19,663.083,813.634Z"></path>
      <path d="M99.892,505.789l9.753,0,11.359.779h-.8q14.943,1.023,29.894,1.943c5.246-1.712,9.157-9.164,9.114-18.287,0-.3,0-.455,0-.76-.049-10.639-5.457-19.431-12.024-19.656-15.929-.551-31.853-1.225-47.777-1.9q-.285-37.465-.488-74.932c-.034-7.3-2.817-13.567-6.759-16.451-3.923,2.854-6.615,9.144-6.575,16.459q.2,33.753.491,67.5h0l.061,6.47h-.01v.063l-1.806-.063H76.107q-17.921-.651-35.838-1.068c-5.239.979-9.211,8.422-9.168,17.436,0,.277,0,.417,0,.695.047,9.723,4.779,17.729,10.659,17.928,14.911.6,29.8,1.405,44.691,2.334q.319,37.065.581,74.13c.049,7.739,3.109,14.671,7.392,17.766,3.482-2.7,5.839-8.378,5.8-15.242q-.221-37.574-.524-75.148l.165.011q4.929.341,9.86.679v-.009Z"></path>
      <path d="M198.985,762.964c0,.3,0,.449,0,.75-.015,10.443,5.372,19.908,12.11,21.011,40.822,6.641,81.7,12.912,122.556,19.338,4.622-2.346,8-9.282,8.225-18.17.008-.336.012-.5.021-.841.288-8.487-2.606-20.653-12.226-22.957-41.017-4.94-82.011-10.034-122.946-15.606C202.2,748.6,199,754.954,198.985,762.964Z"></path>
      <path d="M344.522,495.612v-.768c0-10.742-5.731-19.452-12.822-19.511-40.928-.486-81.814-2.143-122.713-3.636-5.836,1.367-10.22,9.213-10.189,18.843,0,.308,0,.461,0,.77.035,10.755,5.528,19.721,12.329,19.991,40.4,1.608,80.782,3.123,121.2,3.688C339.127,514.347,344.522,505.908,344.522,495.612Z"></path>
      <path d="M99.53,778.233l4.67,8.253h-.036q14.34,25.443,28.37,51.059a16.423,16.423,0,0,0,4.075,5.056,11.859,11.859,0,0,0,2.189-2.531l.321-.5a29.239,29.239,0,0,0-.055-27.318q-16.485-29.32-33.252-58.477,16.4-24.465,33.071-48.744c4.544-6.619,4.532-18.172-.045-25.738l-.328-.543a15.068,15.068,0,0,0-3.951-4.455,11.609,11.609,0,0,0-2.494,2.662q-16.525,24.05-32.751,48.3l-.049-.086-9.859-.145-.024.037c-.029.044-.059.087-.089.131q-16.242-27.962-32.555-55.883a14.727,14.727,0,0,0-3.345-4.03,12.078,12.078,0,0,0-2.309,2.686c-.123.192-.185.29-.308.481-4.292,6.709-4.3,18.178.025,25.578q16.219,27.75,32.32,55.572-16.147,24.423-32.236,48.879c-4.394,6.645-4.384,18.178.068,25.86.128.22.193.336.321.556a15.513,15.513,0,0,0,3.813,4.533,11.474,11.474,0,0,0,2.19-2.472q16.145-24.352,32.24-48.739l.076.135h0Z"></path>
      <path d="M259.743,692.737c.081,7.988,3.618,19.164,10.651,23.056,6.2-3.675,9.28-14.152,9.228-21.112-.057-7.822-3.512-18.856-10.5-22.645C262.829,675.562,259.672,685.656,259.743,692.737Z"></path>
      <path d="M259.989,850.063c.005,8.3,3.7,18.54,11.324,22.168,4.911-2.622,8.46-9.256,8.424-17.662-.037-8.467-3.785-19.065-11.416-22.988C263.506,834.46,259.984,841.586,259.989,850.063Z"></path>
    </g>
    <g fill="#2b2670">
      <path d="M77.013,578.345c.063,10.009,5.155,18.7,11.427,19.433l.449.053a7.212,7.212,0,0,0,1.2.038,7.68,7.68,0,0,0,4.338-1.7c-4.283-3.1-7.343-10.027-7.392-17.766q-.246-37.067-.581-74.13c-14.894-.929-29.78-1.736-44.691-2.334-5.88-.2-10.612-8.2-10.659-17.928,0-.278,0-.418,0-.695-.043-9.014,3.929-16.457,9.168-17.436q-4.317-.1-8.636-.18l-.128,0c-5.849-.078-10.472,7.833-10.425,17.555,0,.278,0,.417,0,.695.047,9.724,4.779,17.729,10.659,17.929,14.911.6,29.8,1.405,44.691,2.333Q76.752,541.281,77.013,578.345Z"></path>
      <path d="M201.108,511.239c43.438,1.729,86.864,3.365,130.337,3.811.014,0,.027,0,.04,0,.286,0,.567-.032.848-.058-40.422-.565-80.808-2.08-121.2-3.688-6.8-.27-12.294-9.236-12.329-19.991,0-.309,0-.462,0-.77-.031-9.63,4.353-17.476,10.189-18.843q-3.916-.144-7.832-.286l-.1,0c-6.851-.239-12.315,8.316-12.281,19.07,0,.307,0,.461,0,.769C188.814,502,194.307,510.968,201.108,511.239Z"></path>
      <path d="M259.989,850.063c0-8.477,3.517-15.6,8.332-18.482a13.885,13.885,0,0,0-3.512-1.248,8.646,8.646,0,0,0-2.007-.179c-6.955.184-12.84,8.888-12.834,19.847.006,9.543,4.89,21.648,15,23.326a9.848,9.848,0,0,0,1.568.128,9.953,9.953,0,0,0,4.773-1.224C263.693,868.6,259.994,858.365,259.989,850.063Z"></path>
      <path d="M132.534,837.546q-14.014-25.629-28.37-51.059h.036l-4.67-8.253-9.936.124h0l.139.245,4.423,7.818-.008.012q14.338,25.44,28.366,51.051c2.55,4.681,6,7.1,9.329,7.061a7.382,7.382,0,0,0,4.767-1.942A16.423,16.423,0,0,1,132.534,837.546Z"></path>
      <path d="M51.274,824.9c-.128-.22-.193-.336-.321-.556-4.452-7.682-4.462-19.215-.068-25.86Q67.019,774.055,83.121,749.6q-16.08-27.831-32.32-55.572c-4.327-7.4-4.317-18.869-.025-25.578.123-.191.185-.289.308-.481a12.078,12.078,0,0,1,2.309-2.686,8.013,8.013,0,0,0-5.432-2.006c-2.523.114-4.982,1.636-6.9,4.63-.124.191-.186.289-.309.481-4.292,6.708-4.3,18.177.025,25.578Q57,721.72,73.1,749.542q-16.147,24.421-32.236,48.879c-4.394,6.644-4.384,18.177.068,25.859.128.221.193.336.321.557,2.521,4.352,5.924,6.565,9.2,6.473a7.516,7.516,0,0,0,4.639-1.878A15.513,15.513,0,0,1,51.274,824.9Z"></path>
      <path d="M86.127,466.952h.01l-.061-6.47h0q-.279-33.752-.491-67.5c-.04-7.315,2.652-13.605,6.575-16.459a8.175,8.175,0,0,0-4.842-1.7h-.46c-6.318.006-11.349,8.113-11.294,18.1q.2,33.784.491,67.567h-.009l.061,6.465"></path>
      <path d="M211.093,784.725c-6.738-1.1-12.125-10.568-12.11-21.011,0-.3,0-.451,0-.75.012-8.01,3.21-14.365,7.738-16.475-1.863-.254-3.727-.494-5.589-.75a7.944,7.944,0,0,0-1.145-.07c-6.194.031-11.01,7.392-11.025,17.232,0,.3,0,.449,0,.75-.015,10.444,5.371,19.908,12.11,21.012,42.6,6.93,85.26,13.453,127.891,20.174a7.585,7.585,0,0,0,1.346.088,7.675,7.675,0,0,0,3.34-.862C292.794,797.637,251.915,791.366,211.093,784.725Z"></path>
      <path d="M259.743,692.737c-.071-7.081,3.086-17.175,9.378-20.7a10.853,10.853,0,0,0-4.658-1.328c-.257-.013-.509-.012-.759-.006-9.355.206-14.069,13.335-13.982,21.973.1,9.482,5.063,23.461,14.966,24.408a9.585,9.585,0,0,0,1.009.041,9.227,9.227,0,0,0,4.7-1.331C263.361,711.9,259.824,700.725,259.743,692.737Z"></path>
      <path d="M120.2,506.566h.8l-11.359-.779-9.753,0,9.836.675v.009c12.548.859,25.1,1.691,37.654,2.412.041,0,.08,0,.121,0a7.356,7.356,0,0,0,2.6-.373Q135.146,507.6,120.2,506.566Z"></path>
      <path d="M99.265,725.177l.049.086q16.227-24.25,32.751-48.3a11.609,11.609,0,0,1,2.494-2.662,8.74,8.74,0,0,0-5.312-1.8c-2.639.053-5.207,1.5-7.2,4.4q-13.686,19.918-27.15,39.987h-.032l-5.479,8.146h.023Z"></path>
      <path d="M676.988,389.916c-.048-10.556-5.845-19.29-12.882-19.235q-4.418.038-8.834.082c6.5.855,11.67,9.187,11.715,19.153.469,141.258-4.378,282.46-3.9,423.718.048,10.556-5.245,20.472-11.862,21.888q-36.36,7.791-72.718,15.586a8,8,0,0,0,5.732.914q38.5-8.219,76.987-16.5c6.616-1.416,11.909-11.332,11.861-21.888C672.61,672.376,677.456,531.174,676.988,389.916Z"></path>
      <path d="M558.337,579.139c0-10.118-5.859-17.9-13.142-17.331l-6.2.488c5.414,1.856,9.339,8.567,9.337,16.843-.036,86.263-.13,172.524.575,258.785.092,10.666-5.6,20.646-12.815,22.157q-41.471,8.65-83.021,16.894a10.409,10.409,0,0,0,6.368.723q43.375-8.574,86.653-17.617c7.218-1.511,12.907-11.491,12.815-22.157C558.208,751.663,558.3,665.4,558.337,579.139Z"></path>
      <path d="M782.31,456.309c-2.752.046-5.5.1-8.256.147,6.313,1.04,11.087,8.173,10.854,16.714-3.07,105.907-9.378,211.654-10.155,317.629-.054,10.462-5.594,20.333-12.341,21.665Q726.857,819.529,691.389,827a7.234,7.234,0,0,0,5.373.968q37.787-7.948,75.651-15.5c6.747-1.332,12.287-11.2,12.341-21.665.777-105.975,7.085-211.722,10.155-317.629C795.164,463.856,789.468,456.194,782.31,456.309Z"></path>
    </g>
    <g fill="url(#blue-shine)">
      <path d="M686.33,643.921c-.962,55.743-1.738,111.488-1.61,167.248.027,7.457,2.751,13.44,6.669,15.826q35.476-7.442,71.023-14.531c6.747-1.332,12.287-11.2,12.341-21.665.465-63.465,2.915-126.848,5.464-190.232Z"></path>
      <path d="M570.869,697.238q.022,69.031.507,138.062c.066,7.509,2.982,13.459,7.127,15.808q36.364-7.77,72.718-15.586c6.617-1.416,11.91-11.332,11.862-21.888-.178-53.177.4-106.346,1.16-159.513Z"></path>
      <path d="M444.714,861.028c0,7.731,3.45,13.738,8.362,15.947q41.554-8.235,83.021-16.894c7.217-1.511,12.907-11.491,12.815-22.157q-.533-65.143-.566-130.286L444.714,755.493Z"></path>
    </g>
  </g>
  <g clip-path="url(#green-clip-path)">
    <path fill="url(#green-gradient)" d="M1487.523,243.043c1.681-11.677-5.354-21.162-15.3-25.069-.28-.174-.557-.344-.83-.507-145.546-61.9-281.507-142.829-423.381-212.2-10.712-5.087-23.879-7.229-35.253-3.075C869.2,63.306,731.536,136.224,585.35,191.51c-1.8.444-11.28,5-14.78,11a26.994,26.994,0,0,0-4.629,17c12.471,144.836,27.075,287.446,39.493,432.288,1.523,15.187,8.456,31.587,20.054,41.811q178.1,149.382,356.665,298.211a38.762,38.762,0,0,0,7.453,4.819,19.575,19.575,0,0,0,19.582-3.575c126.182-92.19,255.781-179.634,381.663-272.226,12.4-9.566,20.44-25.743,23-40.976C1436.5,533.923,1466.443,389.239,1487.523,243.043Z"></path>
    <path fill="#5eb347" d="M1042.175,507.005c-17.116,10.017-40.74,4.978-56.758-4.814-148.635-92.9-288.046-199.317-435.137-294.474-15.053-7.636-8.319-23.055,5.288-26.651,156.19-58.727,303.091-136.672,456.338-201.907,12.05-4.4,26-2.132,37.347,3.258,150.3,73.488,294.342,159.227,448.535,224.8,9.707,5.805,24.477,18.531,5.662,26.7C1347.623,321.4,1193.123,411.309,1042.175,507.005Z"></path>
    <path fill="#6ab547" d="M1042.175,500.189c-17.116,10.017-40.74,4.978-56.758-4.814C836.782,402.475,697.371,296.058,550.28,200.9c-15.053-7.637-8.319-23.055,5.288-26.651,156.19-58.728,303.091-136.672,456.338-201.908,12.05-4.4,26-2.132,37.347,3.258,150.3,73.489,294.342,159.227,448.535,224.8,9.707,5.8,24.477,18.531,5.662,26.7C1347.623,314.584,1193.123,404.494,1042.175,500.189Z"></path>
    <path fill="#75b847" d="M1042.175,493.374c-17.116,10.017-40.74,4.978-56.758-4.814C836.782,395.66,697.371,289.243,550.28,194.087c-15.053-7.637-8.319-23.056,5.288-26.652,156.19-58.727,303.091-136.672,456.338-201.907,12.05-4.4,26-2.132,37.347,3.258,150.3,73.488,294.342,159.227,448.535,224.8,9.707,5.8,24.477,18.53,5.662,26.7C1347.623,307.768,1193.123,397.678,1042.175,493.374Z"></path>
    <path fill="#7fbb47" d="M1042.175,486.558c-17.116,10.017-40.74,4.979-56.758-4.814-148.635-92.9-288.046-199.316-435.137-294.473-15.053-7.636-8.319-23.055,5.288-26.651,156.19-58.728,303.091-136.672,456.338-201.907,12.05-4.4,26-2.133,37.347,3.257,150.3,73.489,294.342,159.228,448.535,224.8,9.707,5.8,24.477,18.531,5.662,26.7C1347.623,300.953,1193.123,390.863,1042.175,486.558Z"></path>
    <path fill="#89bf47" d="M1042.175,479.743c-17.116,10.017-40.74,4.978-56.758-4.814-148.635-92.9-288.046-199.317-435.137-294.473-15.053-7.637-8.319-23.055,5.288-26.652C711.758,95.077,858.659,17.133,1011.906-48.1c12.05-4.4,26-2.132,37.347,3.258,150.3,73.488,294.342,159.227,448.535,224.8,9.707,5.8,24.477,18.53,5.662,26.7C1347.623,294.137,1193.123,384.048,1042.175,479.743Z"></path>
    <path fill="#92c148" d="M1042.175,472.927c-17.116,10.018-40.74,4.979-56.758-4.813C836.782,375.214,697.371,268.8,550.28,173.64c-15.053-7.636-8.319-23.055,5.288-26.651C711.758,88.261,858.659,10.317,1011.906-54.918c12.05-4.4,26-2.133,37.347,3.258,150.3,73.488,294.342,159.227,448.535,224.8,9.707,5.8,24.477,18.531,5.662,26.7C1347.623,287.322,1193.123,377.232,1042.175,472.927Z"></path>
    <path fill="#97c348" d="M1042.175,468.668c-17.116,10.017-40.74,4.978-56.758-4.814-148.635-92.9-288.046-199.317-435.137-294.473-15.053-7.637-8.319-23.055,5.288-26.652C711.758,84,858.659,6.058,1011.906-59.178c12.05-4.4,26-2.132,37.347,3.258,150.3,73.488,294.342,159.227,448.535,224.8,9.707,5.8,24.477,18.53,5.662,26.7C1347.623,283.062,1193.123,372.972,1042.175,468.668Z"></path>
    <g fill="#3e4697">
      <path d="M872.888,856.707a17.2,17.2,0,0,0,7.884,4.225c0-.176.014-.337.006-.519-.458-10.775-7.2-21.765-15.462-28.744a16.963,16.963,0,0,0-7.84-4.1c0,.2-.012.386,0,.595C858.015,838.85,864.75,849.705,872.888,856.707Z"></path>
      <path d="M684.789,454.978l6.964-6.958,0-.051q25.516,19.226,50.889,38.639a13.822,13.822,0,0,0,5.274,2.668c.014-.409.022-.823,0-1.265-.009-.244-.013-.366-.023-.611a37.59,37.59,0,0,0-13.606-25.395q-25.634-19.427-51.393-38.686-1.859-31.906-3.724-63.811A36.832,36.832,0,0,0,665.7,334.593l-.493-.357a12.623,12.623,0,0,0-4.358-2.148,18.586,18.586,0,0,0,.016,2.023q2.113,31.946,4.251,63.888l-.044-.031-6.959,6.992,0,.04q-23.445-17.116-47.169-33.829a11.1,11.1,0,0,0-2.731-1.426,20.5,20.5,0,0,0,.078,2.348c.023.245.034.368.057.613.8,8.583,6.288,18.893,12.37,23.2q23.421,16.675,46.53,33.771,2.109,31.055,4.247,62.108c.574,8.306,6.173,18.927,12.6,23.874l.461.356a12.971,12.971,0,0,0,3.88,2.141c0-.353,0-.705-.022-1.083q-1.847-31.049-3.667-62.1"></path>
      <path d="M701.643,657.769l6.965-6.959h0l-.008-.016q13.75-5.583,27.544-11.058c.3-3.9-1.039-9.341-3.983-14.9l-.357-.677c-5-9.444-12.662-15.556-17-13.641q-15.438,6.879-30.75,14.008-17.3-32.9-34.563-65.816c-3.057-5.834-7.026-10.066-10.4-11.6a33.452,33.452,0,0,0,3.98,13.2q12.606,24.108,25.248,48.2l.02-.02,8.325,15.949h0l.007.012-.038.019-6.965,7-.006-.01q-10.811,5.306-21.475,10.9c-.194,3.511,1.12,8.538,3.775,13.608.122.233.183.351.306.585,4.269,8.151,10.536,13.59,14.053,12.059q13.68-5.953,27.453-11.69,17.253,32.667,34.648,65.259c3.508,6.566,8.406,11.738,12.451,13.529a32.759,32.759,0,0,0-3.811-11.149Q719.267,691.209,701.6,657.8"></path>
      <path d="M871.409,743.653c3.071,2.5,6.009,3.758,8.491,3.9a15.311,15.311,0,0,0,.048-1.722c-.324-11.154-7.1-22.592-15.8-29.59-3.058-2.461-5.963-3.684-8.419-3.829a15.054,15.054,0,0,0-.042,1.8C856.106,725.293,862.8,736.639,871.409,743.653Z"></path>
      <path d="M806.656,745.4q65.515,54.345,132.116,107.35a15.311,15.311,0,0,0,6.361,3.235c0-.057.009-.108.01-.166,0-.226,0-.339.008-.565-.4-9.574-5.83-18.749-13.146-24.736-44.857-34.984-89.135-70.681-133.189-106.671a16.127,16.127,0,0,0-5.158-2.994c0,.075,0,.149.008.249C794.461,730.429,799.687,739.306,806.656,745.4Z"></path>
      <path d="M787.212,505.684c.752,9.89,6.15,19.413,13.78,25.65,46.472,35.609,93.091,71.018,140.348,105.584a14.553,14.553,0,0,0,7.249,3.069c.035-.381.067-.764.073-1.174,0-.242,0-.364,0-.607-.4-10.046-6.185-19.63-14.059-25.667-47.629-34.623-94.613-70.1-141.475-105.752a14.536,14.536,0,0,0-5.925-2.912c-.015.389-.029.78-.016,1.2C787.2,505.317,787.205,505.44,787.212,505.684Z"></path>
      <path d="M1256.383,766.12a38.919,38.919,0,0,0,14.444-24.09c15.379-117.269,33.6-234.1,46.048-351.744a16.006,16.006,0,0,0-2.163,1.1q-45.675,27.894-91.083,56.219a38.6,38.6,0,0,0-16.325,26.683c-9.165,116.747-22.9,233.038-33.306,349.668a18.418,18.418,0,0,0,1.637-1.029Q1215.93,794.408,1256.383,766.12Z"></path>
      <path d="M1381.446,667.731c15.611-91.131,32.376-182.049,45.942-273.517q-40.389,24.34-80.509,49.12a36.484,36.484,0,0,0-15.311,23.729c-11.521,91.316-25.78,182.244-38.219,273.433q36.9-25.383,74.146-50.266C1373.823,686.022,1380.053,675.908,1381.446,667.731Z"></path>
      <path d="M1136.027,851.046a38.909,38.909,0,0,0,14.707-25.385c5.43-65.084,11.985-130.058,18.307-195.059a23.241,23.241,0,0,0-2.911,1.635q-47.442,31.071-94.7,62.424c-8,5.53-14.978,14.3-16.227,24.193-3.526,65.282-6.945,130.56-9.347,195.9a17.888,17.888,0,0,0,3.513-1.975Q1092.7,881.906,1136.027,851.046Z"></path>
      <path d="M1050.031,289.036v9.929l.037.023q-55.819,28.623-111.833,56.864a16.216,16.216,0,0,0-5.886,4.71,14.127,14.127,0,0,0,3.577,3.25l.575.378c9.413,5.551,21.666,5.639,31.469,1.034q56.143-28.782,112.094-57.932,22.927,14.007,45.848,28.026l.023-.012v.026l.023.015-.023.012v9.9l-.063.034.086.053q-56.054,30.025-112.35,59.591a15.505,15.505,0,0,0-5.7,4.793,15.313,15.313,0,0,0,4.385,4.181l.614.4a34.988,34.988,0,0,0,32.544,1.325q63.93-34.224,127.53-69.056l.6-.327a15.374,15.374,0,0,0,2.7-1.855,11.154,11.154,0,0,0,1.43-1.5l-.018-.026a16.647,16.647,0,0,0-4.938-4.307h0l-.615-.371q-34.577-20.747-69.176-41.456a28.815,28.815,0,0,0-9.572-3.413,12.91,12.91,0,0,0-5.4-5.539q-32.5-19.407-65.04-38.748l-.552-.326,0,0c-6.271-3.723-15.867-4.7-23.611-2.78a24.7,24.7,0,0,0-5,1.8l-.584.289Q930.362,279.092,867.33,309.74a16.868,16.868,0,0,0-5.942,4.52,13.078,13.078,0,0,0,2.909,2.555l.541.355c9.164,5.326,21.059,5.149,30.562.8q55.749-27.531,111.353-55.35,21.669,13.164,43.315,26.366"></path>
      <path d="M960.388,212.059l-.53-.313a32.756,32.756,0,0,0-27.95-.911q-22.6,10.8-45.213,21.563-58.448-35.769-117.264-70.922l-.5-.3h0c-8.426-4.461-19.021-4.412-27.758-.868l-.6.265-.012,0q-15.825,6.944-31.647,13.888a17.383,17.383,0,0,0-5.192,3.337,12.553,12.553,0,0,0,1.868,1.41l.5.308c8.645,4.678,19.62,4.4,28.558.7l16.307-7.277q52.3,31.912,104.232,64.414l-.062.03v9.918l-.013.006.075.047q-24.354,11.538-48.724,23.048a17.342,17.342,0,0,0-5.934,4.325,12.6,12.6,0,0,0,2.451,2.053c.208.135.311.2.52.339,9,5.138,20.6,4.793,29.906.649q32.26-15.447,64.492-30.953l.611-.3q30.418-14.657,60.793-29.4a14.825,14.825,0,0,0,4.046-2.791A14.143,14.143,0,0,0,960.388,212.059Z"></path>
      <path d="M1027.351,44.251h0c-5.681-2.878-14.526-3.407-21.676-1.648a25.745,25.745,0,0,0-4.622,1.586Q946.394,69.4,891.441,93.957a15.02,15.02,0,0,0-2.947,1.718,14.68,14.68,0,0,0,2.021,1.33l.5.276c7.036,3.851,18.944,4.213,26.461.788Q965.283,76.253,1012.885,54q19.571,10.046,39.125,20.123l.122-.059v9.954l-.169.082.108.055q-47.607,22.875-95.437,45.275a14.558,14.558,0,0,0-3.123,1.942,14.75,14.75,0,0,0,2.475,1.7q34.089,18.921,68.1,37.991a32.574,32.574,0,0,0,27.506.8l.542-.269q54.82-27.215,109.325-55.047a14.065,14.065,0,0,0,2.825-1.883,14.82,14.82,0,0,0-3.1-2.1l-.54-.278c-7.536-3.881-19.661-3.94-27.084-.2q-47.606,23.942-95.457,47.389-20.234-11.086-40.49-22.132l.068-.033-.008,0v-9.931l-.06-.033q47.778-22.871,95.336-46.2a14.8,14.8,0,0,0,2.827-1.791,14.433,14.433,0,0,0-2.511-1.609Q1060.328,60.962,1027.351,44.251Z"></path>
      <path d="M1224.085,197.763v9.885l.083.045q-25.2,13.518-50.469,26.911-29.338-16.386-58.714-32.7a32.853,32.853,0,0,0-27.918-.815c-.219.11-.325.165-.544.276a13.774,13.774,0,0,0-3.379,2.337,15.441,15.441,0,0,0,3.506,2.64q36.984,20.962,73.9,42.042c8.778,4.638,19.945,5.3,28.983,1q32.56-17.506,65-35.228,31.239,16.972,62.423,34.043c8.856,4.543,20.164,5.438,29.19.859l.528-.305a12.152,12.152,0,0,0,2.8-2.193,17.256,17.256,0,0,0-5.151-4.042q-31.134-16.783-62.318-33.472l.041-.022-.071-.038V199.03l.661.353-.631-.339c7.16-3.956,10.728-5.934,17.851-9.894a12.774,12.774,0,0,0,2.763-2.037,16.174,16.174,0,0,0-4.361-3.229l-.586-.307c-8.627-4.206-19.416-4.681-28.129-.456-7.14,3.9-10.717,5.841-17.887,9.729q-29.413-15.648-58.874-31.208a32.925,32.925,0,0,0-27.616-.484c-.212.109-.317.165-.529.275a13.6,13.6,0,0,0-2.923,2,15.813,15.813,0,0,0,3.57,2.543q29.463,15.81,58.875,31.712"></path>
    </g>
    <g fill="#2b2670">
      <path d="M872.888,856.707c-8.138-7-14.873-17.857-15.414-28.547-.01-.209,0-.395,0-.595-4.357-.717-7.287,2-7,7.6.541,10.689,7.277,21.545,15.414,28.547,8,6.881,14.94,5.38,14.886-2.776A17.2,17.2,0,0,1,872.888,856.707Z"></path>
      <path d="M793.99,538.335c46.472,35.609,93.091,71.018,140.348,105.584,7.4,5.4,13.577,3.563,14.251-3.932a14.553,14.553,0,0,1-7.249-3.069c-47.257-34.566-93.876-69.975-140.348-105.584-7.63-6.237-13.028-15.76-13.78-25.65-.007-.244-.013-.367-.021-.611-.013-.418,0-.809.016-1.2-4.335-.814-7.2,2.136-7.018,8.2.008.244.014.367.021.611C780.962,522.574,786.36,532.1,793.99,538.335Z"></path>
      <path d="M728.415,722.177q-17.394-32.594-34.648-65.259-13.77,5.743-27.453,11.69c-3.517,1.531-9.784-3.908-14.053-12.059-.123-.234-.184-.352-.306-.585-2.655-5.07-3.969-10.1-3.775-13.608q-2.472,1.3-4.937,2.612c-3.365,1.8-2.557,9.846,1.711,18,.123.233.184.351.306.585,4.269,8.151,10.537,13.59,14.054,12.059q13.68-5.955,27.453-11.69,17.251,32.667,34.647,65.259c4.747,8.884,12.042,15.235,16.318,14.081.122-.034.182-.053.305-.086,2.37-.641,3.294-3.5,2.829-7.467C736.821,733.915,731.923,728.743,728.415,722.177Z"></path>
      <path d="M664.5,498.783c.574,8.305,6.173,18.927,12.6,23.873l.461.356c6.139,4.726,10.892,2.573,10.881-4.859a12.971,12.971,0,0,1-3.88-2.141l-.461-.356c-6.427-4.947-12.026-15.568-12.6-23.874q-2.137-31.053-4.247-62.108Q644.116,412.6,620.72,395.9c-6.082-4.3-11.573-14.614-12.37-23.2-.023-.245-.034-.368-.057-.613a20.5,20.5,0,0,1-.078-2.348c-4.648-1.606-7.6,2.1-6.922,9.348.022.246.034.368.057.614.8,8.583,6.288,18.893,12.369,23.2q23.422,16.675,46.531,33.772Q662.358,467.73,664.5,498.783Z"></path>
      <path d="M938.772,852.749q-66.747-52.83-132.116-107.35c-6.969-6.093-12.195-14.97-12.99-24.3,0-.1-.006-.174-.008-.249-4.313-1.374-7.2,1.042-7.012,6.7.007.22.011.33.018.55.795,9.327,6.021,18.2,12.99,24.3Q865.17,806.745,931.77,859.75c7.229,5.7,13.182,4,13.363-3.766A15.311,15.311,0,0,1,938.772,852.749Z"></path>
      <path d="M848.689,721.211c.415,11.083,7.111,22.428,15.718,29.443,7.84,6.391,14.833,4.714,15.493-3.1-2.482-.144-5.42-1.4-8.491-3.9-8.607-7.014-15.3-18.36-15.718-29.443a15.054,15.054,0,0,1,.042-1.8C851.391,712.159,848.468,715.31,848.689,721.211Z"></path>
      <path d="M660.865,334.111a18.586,18.586,0,0,1-.016-2.023c-4.514-1.09-7.429,2.3-6.984,9.024q1.581,23.905,3.181,47.812l1.062,16.04.005,0,6.959-6.992.044.031Q662.98,366.057,660.865,334.111Z"></path>
      <path d="M742.639,486.608q-25.387-19.4-50.889-38.639l0,.051-6.964,6.958,7.719,5.824,0,.04q21.609,16.325,43.128,32.766c6.7,5.124,12.026,3.167,12.275-4.332A13.822,13.822,0,0,1,742.639,486.608Z"></path>
      <path d="M668.332,608.485l-.02.02q-12.635-24.093-25.248-48.2a33.452,33.452,0,0,1-3.98-13.2c-1.756-.8-3.354-.875-4.574-.04l-.254.175c-3.561,2.44-2.7,11.432,1.808,20.063q15.4,29.457,30.848,58.888l2.743,5.256.006.01,6.965-7,.031-.031h0Z"></path>
      <path d="M708.6,650.794l.008.016h0l-6.965,6.959,8.775-3.544,0,.009q11.336-4.572,22.7-9.083c1.823-.717,2.817-2.695,3.023-5.415Q722.352,645.217,708.6,650.794Z"></path>
      <path d="M1427.661,394.049l-.273.165c-13.566,91.468-30.331,182.386-45.942,273.517-1.393,8.177-7.623,18.291-13.951,22.5q-37.263,24.858-74.146,50.266c-.148,1.086-.3,2.172-.447,3.259-1.131,8.4,3.473,11.547,10.2,6.915q37.031-25.471,74.4-50.439c6.328-4.208,12.558-14.322,13.951-22.5,15.733-91.842,32.641-183.468,46.262-275.658C1438.937,393.66,1434.467,389.954,1427.661,394.049Z"></path>
      <path d="M1282.9,733.754q6.193-45.566,12.843-91.064c11.251-80.78,22.579-161.537,31.162-242.68.876-8.419-3.483-12.489-10.031-9.724-12.453,117.643-30.669,234.475-46.048,351.744a38.919,38.919,0,0,1-14.444,24.09q-40.476,28.258-80.748,56.807a18.418,18.418,0,0,1-1.637,1.029c-.076.849-.155,1.7-.231,2.547-.754,8.615,4.6,11.572,11.869,6.425q40.294-28.519,80.748-56.807a38.919,38.919,0,0,0,14.444-24.09q.969-7.4,1.961-14.791A16.178,16.178,0,0,1,1282.9,733.754Z"></path>
      <path d="M1169.041,630.6c-6.322,65-12.877,129.975-18.307,195.059a38.909,38.909,0,0,1-14.707,25.385q-43.345,30.84-86.656,61.728a17.888,17.888,0,0,1-3.513,1.975c-.024.658-.051,1.316-.075,1.973-.31,8.769,5.821,11.587,13.589,6.053q43.324-30.868,86.656-61.728a38.909,38.909,0,0,0,14.707-25.385c5.536-66.353,12.242-132.59,18.678-198.858C1180.069,630.011,1175.6,627.548,1169.041,630.6Z"></path>
      <path d="M806.455,270.407q24.369-11.511,48.724-23.048l-.075-.047.013-.006v-9.955l-8.124,3.88-.932.445,0,0q-19.8,9.373-39.6,18.734c-7.857,3.71-10.154,9.712-5.934,14.325A17.342,17.342,0,0,1,806.455,270.407Z"></path>
      <path d="M703.716,177.806a17.383,17.383,0,0,1,5.192-3.337q15.822-6.945,31.647-13.888l.012,0,.6-.265c8.737-3.544,19.332-3.593,27.758.868h0l.5.3Q828.279,196.584,886.7,232.4q22.618-10.755,45.213-21.563a32.756,32.756,0,0,1,27.95.911l.53.313a14.143,14.143,0,0,1,2.952,2.277c3.868-3.868,2.921-8.821-2.952-12.278l-.53-.313a32.763,32.763,0,0,0-27.95-.911q-22.6,10.8-45.213,21.564-58.448-35.769-117.264-70.923l-.5-.3h0c-8.426-4.46-19.021-4.411-27.758-.867l-.6.264-.012.005q-15.825,6.945-31.647,13.888C701.109,167.89,699.056,173.573,703.716,177.806Z"></path>
      <path d="M1172.749,328.573h0l-.615-.37q-34.577-20.748-69.176-41.457a28.814,28.814,0,0,0-9.572-3.412,12.907,12.907,0,0,0-5.4-5.54q-32.5-19.406-65.04-38.747l-.552-.326,0,0c-6.271-3.723-15.867-4.7-23.611-2.78a24.761,24.761,0,0,0-5,1.8l-.584.289Q930.362,269.091,867.33,299.74c-7.682,3.738-9.921,9.749-5.942,14.52a16.868,16.868,0,0,1,5.942-4.52q63.01-30.695,125.859-61.716l.584-.289a24.7,24.7,0,0,1,5-1.8c7.744-1.919,17.34-.943,23.611,2.78l0,0,.552.326q32.541,19.338,65.04,38.748a12.91,12.91,0,0,1,5.4,5.539,28.815,28.815,0,0,1,9.572,3.413q34.605,20.7,69.176,41.456l.615.371h0a16.647,16.647,0,0,1,4.938,4.307l.018.026c2.431-3.067,2.4-6.723-.018-10.027A16.645,16.645,0,0,0,1172.749,328.573Z"></path>
      <path d="M1013.608,404.938q56.288-29.585,112.35-59.591l-.086-.053.063-.034v-9.954l-.023.012-9.885,5.334q-51.111,27.329-102.419,54.285c-7.127,3.743-9.139,9.684-5.7,14.794A15.505,15.505,0,0,1,1013.608,404.938Z"></path>
      <path d="M938.235,355.852q56-28.264,111.833-56.864l-.037-.023v-9.929l-8.887,4.52-.011-.007q-51.372,26.3-102.9,52.3c-7.445,3.754-9.613,9.76-5.886,14.71A16.216,16.216,0,0,1,938.235,355.852Z"></path>
      <path d="M888.494,95.675a15.02,15.02,0,0,1,2.947-1.718q54.942-24.586,109.61-49.769a25.745,25.745,0,0,1,4.622-1.586c7.15-1.759,16-1.23,21.676,1.648h0q32.976,16.712,65.909,33.506a14.433,14.433,0,0,1,2.511,1.609c4.464-3.628,3.653-8.464-2.511-11.609q-32.932-16.8-65.909-33.507h0c-5.681-2.877-14.526-3.407-21.676-1.648a25.824,25.824,0,0,0-4.622,1.586Q946.394,59.4,891.441,83.956C884.751,86.946,883.679,91.906,888.494,95.675Z"></path>
      <path d="M1164.646,151.433c-6.055,3.131-7.012,8.025-2.923,12a13.6,13.6,0,0,1,2.923-2c.212-.11.317-.166.529-.275a32.925,32.925,0,0,1,27.616.484q29.46,15.559,58.874,31.208c7.17-3.888,10.747-5.833,17.887-9.729,8.713-4.225,19.5-3.75,28.129.456l.586.307a16.174,16.174,0,0,1,4.361,3.229c4.165-4.081,2.586-9.579-4.361-13.229l-.586-.308c-8.627-4.2-19.416-4.68-28.129-.455-7.14,3.9-10.717,5.841-17.887,9.729q-29.413-15.649-58.874-31.209a32.932,32.932,0,0,0-27.616-.484Z"></path>
      <path d="M1052.071,84.155l-.108-.055.169-.082V74.064l-.122.059-11.784,5.666v.038q-41.712,19.977-83.592,39.6c-6.534,3.058-7.648,8.055-3.123,11.942a14.558,14.558,0,0,1,3.123-1.942Q1004.459,107.015,1052.071,84.155Z"></path>
      <path d="M1087.067,201.088a32.853,32.853,0,0,1,27.918.815q29.379,16.311,58.714,32.7,25.269-13.391,50.469-26.911l-.083-.045v-9.885l-8.308,4.417-3.6,1.913v.012q-19.223,10.283-38.48,20.5-29.338-16.385-58.714-32.7a32.856,32.856,0,0,0-27.918-.815c-.219.111-.325.166-.544.276-6.24,3.154-7.391,8.194-3.379,12.338a13.774,13.774,0,0,1,3.379-2.337C1086.742,201.253,1086.848,201.2,1087.067,201.088Z"></path>
      <path d="M997.676,137.321l-.068.033q20.256,11.046,40.49,22.132,47.845-23.463,95.457-47.389c7.423-3.741,19.548-3.682,27.084.2l.54.278a14.82,14.82,0,0,1,3.1,2.1c4.352-3.77,3.3-8.8-3.1-12.1l-.54-.277c-7.536-3.881-19.661-3.94-27.084-.2q-47.606,23.943-95.457,47.389-14.253-7.809-28.523-15.591v-.008l-11.907-6.523v9.954Z"></path>
      <path d="M1281.984,208.984l.071.038-.041.022q31.185,16.686,62.318,33.472a17.256,17.256,0,0,1,5.151,4.042c4.034-4.295,2.128-10.115-5.151-14.042q-25.2-13.585-50.442-27.093v-.043l-11.245-6-.661-.353Z"></path>
    </g>
    <path fill="url(#green-shine)" d="M1055.9,497.351a36.749,36.749,0,1,1-36.749-36.748A36.75,36.75,0,0,1,1055.9,497.351Z"></path>
  </g>
</svg><svg xmlns="http://www.w3.org/2000/svg" viewBox="0 0 100 10.816" height="11" width="101.701171875" x="45.298828125" y="79">
  <path d="M.036 2.47h.78V5.2h.018a1.619 1.619 0 0 1 1.48-.8 1.948 1.948 0 0 1 1.829 2.212A2.062 2.062 0 0 1 2.2 8.933a1.544 1.544 0 0 1-1.456-.816H.717l-.036.718H0l.036-1.12zm.78 4.63a1.462 1.462 0 0 0 .036.286 1.218 1.218 0 0 0 1.183.924c.826 0 1.318-.672 1.318-1.668 0-.87-.447-1.613-1.3-1.613a1.258 1.258 0 0 0-1.2.968 1.62 1.62 0 0 0-.045.323zm4.622-2.6l.95 2.56.278.887h.017l.278-.905.86-2.542h.834l-1.18 3.1a6.6 6.6 0 0 1-1.489 2.716 2.149 2.149 0 0 1-.968.511l-.2-.663a2.074 2.074 0 0 0 .691-.386 2.382 2.382 0 0 0 .663-.879.558.558 0 0 0 .065-.188.686.686 0 0 0-.054-.206l-1.6-4zm7.337 4.6L10.7 2.508h1.694l1.235 4.32 1.136-4.32h1.682l1.1 4.32 1.26-4.32h1.72L18.4 9.1h-1.677l-1.136-4.24L14.47 9.1zM23.172 0v3.346a2.616 2.616 0 0 1 3.1-.764 1.776 1.776 0 0 1 .729.571 2.044 2.044 0 0 1 .335.77 6.861 6.861 0 0 1 .091 1.31V9.1h-1.74V5.618a5.166 5.166 0 0 0-.1-1.316.86.86 0 0 0-.351-.444 1.127 1.127 0 0 0-.63-.165 1.446 1.446 0 0 0-.775.211 1.215 1.215 0 0 0-.5.636 3.788 3.788 0 0 0-.158 1.26v3.3H21.43V0zM29.2 1.614V0h1.744v1.614zm0 7.486V2.508h1.744V9.1zm2.83 0V7.74L34.5 4.9q.608-.7.9-.987-.3.018-.8.025l-2.328.012V2.508h5.45v1.235L35.2 6.648l-.887.962q.725-.043.9-.043h2.7V9.1zm6.356 0V7.74l2.47-2.84q.608-.7.9-.987-.3.018-.8.025l-2.328.012V2.508h5.45v1.235l-2.52 2.905-.887.962q.726-.043.9-.043h2.7V9.1zm10.334.005V2.52h4.763v.78h-3.9v2.013h3.643v.773h-3.643v2.24h4.043v.778zm6.027 0V2.52h2.268a5.431 5.431 0 0 1 1.173.095 2.232 2.232 0 0 1 .966.471 2.684 2.684 0 0 1 .779 1.126 4.416 4.416 0 0 1 .259 1.565 4.586 4.586 0 0 1-.176 1.329 3.22 3.22 0 0 1-.449.96 2.389 2.389 0 0 1-.6.6 2.428 2.428 0 0 1-.786.33 4.481 4.481 0 0 1-1.058.113zm.87-.778h1.407a3.407 3.407 0 0 0 1.021-.121 1.457 1.457 0 0 0 .591-.341 2.079 2.079 0 0 0 .483-.834 4.079 4.079 0 0 0 .173-1.269 3.062 3.062 0 0 0-.339-1.587 1.709 1.709 0 0 0-.824-.744A3.407 3.407 0 0 0 57 3.3h-1.382zM65.62 2.52h.87v3.805a4.5 4.5 0 0 1-.225 1.576 1.921 1.921 0 0 1-.81.949 2.874 2.874 0 0 1-1.539.367A3.165 3.165 0 0 1 62.4 8.9a1.826 1.826 0 0 1-.841-.923 4.4 4.4 0 0 1-.251-1.651v-3.8h.872v3.8a3.686 3.686 0 0 0 .159 1.264 1.205 1.205 0 0 0 .548.626 1.888 1.888 0 0 0 .95.22A1.814 1.814 0 0 0 65.211 8a2.506 2.506 0 0 0 .409-1.68zm6.93 4.28l.87.22a2.927 2.927 0 0 1-.986 1.637 2.715 2.715 0 0 1-1.741.564 3.128 3.128 0 0 1-1.731-.434 2.7 2.7 0 0 1-1.015-1.255 4.484 4.484 0 0 1-.348-1.77 3.9 3.9 0 0 1 .392-1.795 2.711 2.711 0 0 1 1.12-1.167 3.27 3.27 0 0 1 1.6-.4 2.7 2.7 0 0 1 1.662.5 2.614 2.614 0 0 1 .939 1.415l-.858.2a2.036 2.036 0 0 0-.664-1.047 1.78 1.78 0 0 0-1.1-.328 2.131 2.131 0 0 0-1.269.364 1.92 1.92 0 0 0-.717.977 3.959 3.959 0 0 0-.204 1.277 4.026 4.026 0 0 0 .245 1.467 1.827 1.827 0 0 0 .761.936 2.133 2.133 0 0 0 1.118.31 1.879 1.879 0 0 0 1.241-.422A2.168 2.168 0 0 0 72.55 6.8zm1.13 2.305L76.2 2.52h.938l2.7 6.586h-.997L78.07 7.1h-2.74l-.724 2zm1.9-2.7h2.232l-.687-1.825q-.315-.83-.468-1.366a8.23 8.23 0 0 1-.356 1.254zm5.86 2.7V3.3h-2.17v-.78h5.22v.78h-2.2v5.805zm4 0V2.52h.87v6.586zM87.492 5.9a3.577 3.577 0 0 1 .88-2.567 2.992 2.992 0 0 1 2.273-.933 3.148 3.148 0 0 1 1.644.436 2.846 2.846 0 0 1 1.116 1.215 3.935 3.935 0 0 1 .385 1.769 3.893 3.893 0 0 1-.4 1.794 2.775 2.775 0 0 1-1.146 1.2 3.278 3.278 0 0 1-1.6.406 3.111 3.111 0 0 1-1.662-.45 2.893 2.893 0 0 1-1.109-1.225 3.717 3.717 0 0 1-.381-1.645zm.9.014a2.63 2.63 0 0 0 .641 1.875 2.233 2.233 0 0 0 3.225-.007 2.8 2.8 0 0 0 .635-1.963 3.363 3.363 0 0 0-.272-1.4 2.094 2.094 0 0 0-.794-.93 2.161 2.161 0 0 0-1.175-.33 2.229 2.229 0 0 0-1.593.636 2.84 2.84 0 0 0-.669 2.116zm6.418 3.2V2.52h.895l3.458 5.17V2.52H100v6.586h-.894l-3.46-5.175v5.175z" fill="#002f64"></path>
</svg></svg>